<?xml version="1.0" standalone="no"?>
<!DOCTYPE svg PUBLIC "-//W3C//DTD SVG 20010904//EN"
 "http://www.w3.org/TR/2001/REC-SVG-20010904/DTD/svg10.dtd">
<svg version="1.0" xmlns="http://www.w3.org/2000/svg"
 width="512.000000pt" height="512.000000pt" viewBox="0 0 512.000000 512.000000"
 preserveAspectRatio="xMidYMid meet">

<g transform="translate(0.000000,512.000000) scale(0.100000,-0.100000)"
fill="#000000" stroke="none">
<path d="M840 4663 c-427 -68 -752 -383 -825 -798 -23 -131 -23 -2479 0 -2610
67 -382 350 -683 735 -781 72 -18 136 -19 1810 -19 1674 0 1738 1 1810 19 364
93 621 348 722 717 l23 84 0 1285 0 1285 -23 84 c-101 368 -337 605 -717 718
-56 16 -164 18 -1785 19 -949 1 -1736 0 -1750 -3z m3445 -318 c226 -47 415
-220 493 -450 l27 -80 0 -1255 0 -1255 -27 -80 c-78 -230 -267 -403 -493 -450
-105 -22 -3345 -22 -3450 0 -226 47 -415 220 -493 450 l-27 80 0 1255 0 1255
27 80 c62 182 175 312 343 396 145 72 30 67 1870 68 1421 1 1670 -1 1730 -14z"/>
<path d="M1435 3554 c-209 -43 -364 -132 -491 -282 -107 -128 -173 -260 -221
-439 -23 -88 -26 -116 -26 -273 0 -157 3 -185 26 -273 114 -427 406 -700 773
-724 404 -26 769 298 864 767 16 77 21 132 18 203 l-3 98 -41 39 c-52 48 -84
53 -339 48 -168 -3 -194 -5 -224 -23 -56 -33 -76 -68 -76 -135 0 -67 20 -102
76 -135 27 -16 57 -20 160 -23 l127 -4 -18 -67 c-25 -88 -45 -134 -87 -199
-138 -216 -363 -309 -562 -233 -169 64 -304 233 -362 452 -32 118 -32 300 0
418 87 329 347 532 599 467 102 -26 160 -62 254 -157 99 -100 137 -119 203
-100 111 31 150 144 85 243 -71 107 -227 230 -362 284 -106 44 -283 66 -373
48z"/>
<path d="M2810 3549 c-14 -5 -36 -20 -48 -32 -54 -50 -52 -8 -52 -960 l0 -884
23 -33 c37 -55 72 -75 132 -75 58 0 91 18 129 69 21 27 21 34 21 926 0 892 0
899 -21 926 -11 15 -32 36 -46 47 -30 23 -103 31 -138 16z"/>
<path d="M3430 3542 c-48 -26 -77 -73 -85 -135 -3 -29 -5 -430 -3 -892 3 -934
-1 -876 70 -927 25 -18 46 -23 90 -23 65 0 100 20 133 76 19 32 20 55 23 496
l3 462 327 3 c288 3 331 5 359 20 105 58 107 211 3 272 -33 20 -53 21 -362 24
l-328 3 0 165 0 164 329 0 c324 0 328 0 361 23 55 37 75 72 75 132 0 58 -18
91 -69 129 -27 20 -41 21 -459 24 -406 2 -434 1 -467 -16z"/>
</g>
</svg>
