<?xml version="1.0" standalone="yes"?>
<svg xmlns="http://www.w3.org/2000/svg" width="512" height="512">
<path style="fill:#ffffff; stroke:none;" d="M0 0L0 46L1 46C3.95867 24.1358 24.1358 3.95865 46 1C34.061 -4.00977 13.0035 0 0 0z"/>
<path style="fill:#010101; stroke:none;" d="M46 0.463745C40.105 1.50577 34.2241 3.51736 29 6.43982C-5.86214 25.9424 0 64.0493 0 98L0 377L0 439C0 457.59 -0.693467 474.255 10.9244 490C35.3146 523.054 89.1826 512 125 512L356 512L429 512C441.203 512 455.024 513.789 467 511.334C472.961 510.112 478.741 508.054 484 504.982C518.152 485.032 512 446.755 512 413L512 133L512 73C512 53.9615 512.632 36.8991 500.32 21C475.391 -11.1942 420.785 0 385 0L157 0L84 0C71.7386 0 58.0852 -1.67249 46 0.463745z"/>
<path style="fill:#ffffff; stroke:none;" d="M466 0L466 1C487.864 3.95865 508.041 24.1359 511 46L512 46L512 0L466 0M228 114L228 398L284 398L284 114L228 114M114 200L114 398L170 398L170 200L114 200M342 285L342 398L398 398L398 285L342 285M0 466L0 512L46 512L46 511C19.2986 507.387 10.9696 486.476 0 466M511 466C508.041 487.864 487.864 508.041 466 511L466 512L512 512C512 498.997 516.01 477.939 511 466z"/>
</svg>
