<?xml version="1.0" standalone="no"?>
<!DOCTYPE svg PUBLIC "-//W3C//DTD SVG 20010904//EN"
 "http://www.w3.org/TR/2001/REC-SVG-20010904/DTD/svg10.dtd">
<svg version="1.0" xmlns="http://www.w3.org/2000/svg"
 width="512.000000pt" height="512.000000pt" viewBox="0 0 512.000000 512.000000"
 preserveAspectRatio="xMidYMid meet">

<g transform="translate(0.000000,512.000000) scale(0.100000,-0.100000)"
fill="#000000" stroke="none">
<path d="M2000 4789 c-14 -6 -36 -20 -48 -32 -55 -51 -52 95 -52 -2200 l0
-2124 23 -33 c12 -18 35 -43 50 -54 28 -21 36 -21 587 -21 551 0 559 0 587 21
15 11 38 36 51 54 l22 33 0 2127 0 2127 -22 33 c-13 18 -36 43 -51 54 -28 21
-38 21 -575 23 -350 1 -556 -2 -572 -8z m900 -2229 l0 -1920 -340 0 -340 0 0
1920 0 1920 340 0 340 0 0 -1920z"/>
<path d="M3565 4140 c-22 -11 -49 -33 -60 -48 -20 -27 -20 -43 -20 -1854 l0
-1827 35 -36 c19 -19 50 -40 70 -46 23 -6 225 -9 572 -7 524 3 537 3 564 24
15 11 37 33 48 48 l21 27 0 1819 0 1819 -21 27 c-11 15 -33 37 -48 48 -27 21
-40 21 -574 24 -533 2 -548 2 -587 -18z m915 -1900 l0 -1600 -340 0 -340 0 0
1600 0 1600 340 0 340 0 0 -1600z"/>
<path d="M415 3186 c-41 -18 -83 -69 -90 -109 -3 -18 -4 -622 -3 -1344 3
-1307 3 -1312 24 -1339 11 -15 33 -37 48 -48 27 -21 40 -21 564 -24 347 -2
549 1 572 7 20 6 51 27 70 46 l35 36 3 1338 2 1338 -22 33 c-13 18 -36 43 -51
54 -28 21 -38 21 -575 23 -440 2 -553 0 -577 -11z m905 -1426 l0 -1120 -340 0
-340 0 0 1120 0 1120 340 0 340 0 0 -1120z"/>
</g>
</svg>
