<svg xmlns="http://www.w3.org/2000/svg" viewBox="0 0 64 64"><path d="M56 7h-4V6a3 3 0 0 0-6 0v1h-2V6a3 3 0 0 0-6 0v1H26V6a3 3 0 0 0-6 0v1h-2V6a3 3 0 0 0-6 0v1H8a5 5 0 0 0-5 5v44a5 5 0 0 0 5 5h48a5 5 0 0 0 5-5V38a1 1 0 0 0-2 0v1H47V29h12a1 1 0 0 0 2 0V12a5 5 0 0 0-5-5Zm-8-1a1 1 0 0 1 2 0v4a1 1 0 0 1-2 0Zm-8 0a1 1 0 0 1 2 0v4a1 1 0 0 1-2 0ZM22 6a1 1 0 0 1 2 0v4a1 1 0 0 1-2 0Zm-8 0a1 1 0 0 1 2 0v4a1 1 0 0 1-2 0ZM8 9h4v1a3 3 0 0 0 6 0V9h2v1a3 3 0 0 0 6 0V9h12v1a3 3 0 0 0 6 0V9h2v1a3 3 0 0 0 6 0V9h4a3 3 0 0 1 3 3v3H5v-3a3 3 0 0 1 3-3Zm37 18H33V17h12ZM33 51V41h12v10Zm-2 0H19V41h12ZM5 51V41h12v10Zm12-24H5V17h12Zm0 2v10H5V29Zm2 10V29h12v10Zm0-12V17h12v10Zm37 32H8a3 3 0 0 1-3-3v-3h54v3a3 3 0 0 1-3 3Zm3-18v10H47V41Zm-14-2H33V29h12Zm2-12V17h12v10Z"/><path d="M59 33v1a1 1 0 0 0 2 0v-1a1 1 0 0 0-2 0zm-31.71-1.71L24 34.59l-1.29-1.3a1 1 0 0 0-1.42 1.42l2 2a1 1 0 0 0 1.42 0l4-4a1 1 0 0 0-1.42-1.42zm14 12L38 46.59l-1.29-1.3a1 1 0 0 0-1.42 1.42c3.29 3.28 2 3.4 7.42-2a1 1 0 0 0-1.42-1.42zm14-24L52 22.59l-1.29-1.3a1 1 0 0 0-1.42 1.42c3.29 3.28 2 3.4 7.42-2a1 1 0 0 0-1.42-1.42z"/></svg>